<?xml version="1.0" standalone="no"?>
<!DOCTYPE svg PUBLIC "-//W3C//DTD SVG 20010904//EN"
 "http://www.w3.org/TR/2001/REC-SVG-20010904/DTD/svg10.dtd">
<svg version="1.0" xmlns="http://www.w3.org/2000/svg"
 width="512.000000pt" height="512.000000pt" viewBox="0 0 512.000000 512.000000"
 preserveAspectRatio="xMidYMid meet">

<g transform="translate(0.000000,512.000000) scale(0.100000,-0.100000)"
fill="#000000" stroke="none">
<path d="M593 3621 c-92 -23 -154 -97 -161 -192 -4 -54 -1 -68 32 -133 82
-166 280 -435 459 -622 l109 -114 -81 -144 c-92 -161 -104 -193 -95 -252 20
-136 160 -219 287 -170 58 22 94 62 162 181 31 55 60 103 63 107 4 4 32 -9 62
-28 175 -111 407 -213 601 -264 93 -24 279 -60 312 -60 4 0 7 -61 7 -135 0
-100 4 -145 15 -173 64 -152 273 -172 370 -34 30 43 30 45 33 193 2 82 6 149
10 149 33 0 219 36 311 60 194 51 426 153 601 264 30 19 58 32 62 28 3 -4 32
-52 63 -107 68 -119 104 -159 162 -181 126 -48 266 33 287 168 10 59 -6 99
-94 252 -44 77 -80 142 -80 144 0 3 45 52 101 109 173 180 386 467 468 630 48
96 39 196 -22 261 -60 65 -175 85 -252 45 -51 -27 -73 -52 -118 -133 -19 -36
-70 -114 -112 -175 -347 -496 -784 -810 -1275 -917 -91 -19 -134 -22 -320 -22
-185 0 -229 3 -317 22 -365 79 -688 263 -978 557 -162 163 -268 303 -450 592
-46 74 -140 114 -222 94z"/>
</g>
</svg>
